HIERARCHY
ROOT Hips
{
	OFFSET	0.00	0.00	0.00
	CHANNELS 6 Xposition Yposition Zposition Zrotation Xrotation Yrotation
	JOINT Spine
	{
		OFFSET	 0.00	0.01	 0.00
		CHANNELS 3 Zrotation Xrotation Yrotation
		JOINT Spine1
		{
			OFFSET	 0.00	 2.45913012437421	 0.00
			CHANNELS 3 Zrotation Xrotation Yrotation
            JOINT Neck
            {
                OFFSET	 0.00	 2.48462964506057	 0.00
                CHANNELS 3 Zrotation Xrotation Yrotation
                JOINT Head
                {
                    OFFSET	 0.00	 0.927524780924562	 0.00
                    CHANNELS 3 Zrotation Xrotation Yrotation
                    End Site 
                    {
                        OFFSET	 0.00	 1.14999962169752	 0.00
                    }
                }
            }
			JOINT LeftShoulder
			{
				OFFSET	 0.00	 2.48462964506057	 0.00
				CHANNELS 3 Zrotation Xrotation Yrotation
				JOINT LeftUpArm
				{
					OFFSET	 0.00	 1.24881979654096	 0.00
					CHANNELS 3 Zrotation Xrotation Yrotation
					JOINT LeftForeArm
					{
						OFFSET	 0.00	2.59758046908119	 0.00
						CHANNELS 3 Zrotation Xrotation Yrotation
						JOINT LeftHand
						{
							OFFSET	 0.00	2.45542024364365	 0.00
							CHANNELS 3 Zrotation Xrotation Yrotation
							JOINT LeftHandThumb 
							{
								OFFSET	 0.00	0.00	 0.00
								CHANNELS 3 Zrotation Xrotation Yrotation
								End Site
								{
									OFFSET	 0.00	0.00	1.00000003353624
								}
							}
							JOINT L_Wrist_End 
							{
								OFFSET	 0.00	0.99999967115358	 0.00
								CHANNELS 3 Zrotation Xrotation Yrotation
								End Site 
								{
									OFFSET	 0.00	 0.00	 0.00
								}
							}
						}
					}
				}
			}
			JOINT RightShoulder
			{
				OFFSET	 0.00	 2.48462964506057	 0.00
				CHANNELS 3 Zrotation Xrotation Yrotation
				JOINT RightUpArm
				{
					OFFSET	 0.00	 1.24881979654096	 0.00
					CHANNELS 3 Zrotation Xrotation Yrotation
					JOINT RightForeArm
					{
						OFFSET	 0.00	2.59758046908119	 0.00
						CHANNELS 3 Zrotation Xrotation Yrotation
						JOINT RightHand
						{
							OFFSET	 0.00	2.45542024364365	 0.00
							CHANNELS 3 Zrotation Xrotation Yrotation
							JOINT RightHandThumb 
							{
								OFFSET	 0.00	0.00	 0.00
								CHANNELS 3 Zrotation Xrotation Yrotation
								End Site
								{
									OFFSET	 0.00	0.00	1.00000003353624
								}
							}
							JOINT R_Wrist_End 
							{
								OFFSET	 0.00	0.99999967115358	 0.00
								CHANNELS 3 Zrotation Xrotation Yrotation
								End Site 
								{
									OFFSET	 0.00	 0.00	 0.00
								}
							}
						}
					}
				}
			}
		}
	}
	JOINT LeftUpLeg
	{
		OFFSET	 1.2719394002717	 0.00	 0.00
		CHANNELS 3 Zrotation Xrotation Yrotation
		JOINT LeftLowLeg
		{
			OFFSET	 0.00	-4.3429100912261	 0.00
			CHANNELS 3 Zrotation Xrotation Yrotation
			JOINT LeftFoot
			{
				OFFSET	 0.00	-4.48767017425826	 0.00
				CHANNELS 3 Zrotation Xrotation Yrotation
				JOINT LeftToeBase
                {
                    OFFSET	 0.00	0.00	 1.51507020887566
                    CHANNELS 3 Zrotation Xrotation Yrotation
                    End Site 
                    {
                        OFFSET	 0.00	0.00	 0.75000010571191
                    }
                }
			}
		}
	}
	JOINT RightUpLeg
	{
		OFFSET	 -1.2719393604653	 0.00	 0.00
		CHANNELS 3 Zrotation Xrotation Yrotation
		JOINT RightLowLeg
		{
			OFFSET	 0.00	-4.3429100912261	 0.00
			CHANNELS 3 Zrotation Xrotation Yrotation
			JOINT RightFoot
			{
				OFFSET	 0.00	-4.48767017425826	 0.00
				CHANNELS 3 Zrotation Xrotation Yrotation
				JOINT RightToeBase
                {
                    OFFSET	 0.00	0.00	 1.51507020887566
                    CHANNELS 3 Zrotation Xrotation Yrotation
                    End Site 
                    {
                        OFFSET	 0.00	0.00	 0.749999965609858
                    }
                }   
			}
		}
	}
}
MOTION 
Frames:	13 
Frame Time: 0.02 
 1.159540023803711 7.02802978515625 9.34072998046875 -155.761 81.4334 510.271 2.0749 -8.5655 0.493661 5.37072 -8.92274 0.7743 -39.9387 53.0844 35.6174 86.2956 -67.0173 -278.943 -114.7528 -9.56685 -9.7203 14.9452 13.223 -23.8607 0.0 7.32917 0.0 24.3055 -12.9492 32.8342 0.0 0.0 0.0 0.0 0.0 0.0 110.7682 -6.56087 5.19661 -10.3386 9.21824 41.6664 0.0 18.7083 0.0 -23.7741 -15.5973 -50.828 0.0 0.0 0.0 0.0 0.0 0.0 7.8527 -4.91365 0.824651 0.0 5.66544 0.0 -16.3344 1.5761003 11.9717 0.0 -34.3652 0.0 4.07572 -5.31212 3.78073 0.0 8.04558 0.0 14.8088 4.6070004 -16.9506 0.0 -38.6028 0.0 
  1.1588899993896484 7.028839721679687 9.340830078125 -155.643 81.4569 510.163 2.06805 -8.54968 0.484943 5.36072 -8.8941 0.765252 -39.7657 53.2635 35.3049 86.1939 -67.0404 -279.301 -114.7717 -9.57701 -9.71952 15.0064 13.2149 -23.9052 0.0 7.27645 0.0 24.4133 -12.9887 32.8617 0.0 0.0 0.0 0.0 0.0 0.0 110.759 -6.53283 5.22931 -10.3967 9.20284 41.5561 0.0 18.6534 0.0 -23.8865 -15.6379 -50.82 0.0 0.0 0.0 0.0 0.0 0.0 7.85946 -4.90229 0.816313 0.0 5.68453 0.0 -16.3527 1.5718002 11.9641 0.0 -34.351997 0.0 4.08506 -5.2931 3.81238 0.0 8.05992 0.0 14.8175 4.597 -16.9831 0.0 -38.584602 0.0 
  1.1583300018310547 7.029849853515625 9.340910034179688 -155.621 81.4709 510.162 2.05963 -8.55078 0.483409 5.32966 -8.84303 0.763063 -39.0042 53.6522 34.0334 86.0867 -67.2053 -279.487 -114.7615 -9.59443 -9.73766 15.0144 13.2448 -23.9533 0.0 7.23512 0.0 24.5754 -12.9669 32.8821 0.0 0.0 0.0 0.0 0.0 0.0 110.75 -6.5119 5.24968 -10.4171 9.14458 41.5592 0.0 18.6471 0.0 -23.9233 -15.6337 -50.8259 0.0 0.0 0.0 0.0 0.0 0.0 7.85598 -4.91289 0.807477 0.0 5.70714 0.0 -16.3401 1.5825005 11.9674 0.0 -34.3517 0.0 4.08196 -5.29342 3.81201 0.0 8.07811 0.0 14.8419 4.5839005 -16.9812 0.0 -38.5701 0.0 
  1.1578099822998047 7.0314599609375 9.341019897460937 -155.52 81.4883 510.116 2.05342 -8.53054 0.468953 5.29101 -8.80927 0.748253 -38.1894 54.2275 32.5895 86.0236 -67.3651 -279.724 -114.7668 -9.63213 -9.70207 15.0566 13.2964 -24.034 0.0 7.20657 0.0 24.5988 -12.9717 32.7676 0.0 0.0 0.0 0.0 0.0 0.0 110.7388 -6.50506 5.23462 -10.4162 9.0899 41.6879 0.0 18.6351 0.0 -23.9143 -15.5672 -50.8511 0.0 0.0 0.0 0.0 0.0 0.0 7.86109 -4.93374 0.762112 0.0 5.74172 0.0 -16.332 1.5913 11.9624 0.0 -34.377 0.0 4.08653 -5.28844 3.79675 0.0 8.10011 0.0 14.8476 4.5724 -17.0069 0.0 -38.583 0.0 
  1.1573799896240233 7.032839965820313 9.341069946289062 -155.403 81.5026 510.039 2.0457 -8.51606 0.468504 5.2687 -8.79361 0.749037 -37.2645 54.9508 30.9309 85.8433 -67.5369 -280.244 -114.7655 -9.62892 -9.69761 15.0659 13.3085 -24.0564 0.0 7.24278 0.0 24.511 -13.0064 32.7853 0.0 0.0 0.0 0.0 0.0 0.0 110.7059 -6.51208 5.22405 -10.397 9.0569 41.8037 0.0 18.6336 0.0 -23.874 -15.6683 -50.7274 0.0 0.0 0.0 0.0 0.0 0.0 7.87058 -4.94489 0.752949 0.0 5.76772 0.0 -16.3477 1.5960999 11.9248 0.0 -34.3649 0.0 4.09642 -5.28323 3.80191 0.0 8.12137 0.0 14.8522 4.5612 -17.0359 0.0 -38.5757 0.0 
  1.1571800231933593 7.033709716796875 9.341090087890626 -155.3 81.5281 509.949 2.03395 -8.49805 0.485429 5.25615 -8.80916 0.770404 -36.3497 55.7804 29.2159 85.6788 -67.7396 -281.037 -114.757904 -9.60665 -9.64231 15.0712 13.2969 -24.0543 0.0 7.2782 0.0 24.4127 -13.0042 32.8821 0.0 0.0 0.0 0.0 0.0 0.0 110.6761 -6.50281 5.18695 -10.4144 9.02051 41.8048 0.0 18.5537 0.0 -23.9351 -15.7004 -50.8087 0.0 0.0 0.0 0.0 0.0 0.0 7.87245 -4.92652 0.793432 0.0 5.76913 0.0 -16.3578 1.6105003 11.8827 0.0 -34.385902 0.0 4.09716 -5.2708 3.80005 0.0 8.14731 0.0 14.866 4.5484 -17.0332 0.0 -38.5813 0.0 
  1.1569200134277344 7.035369873046875 9.341229858398437 -155.171 81.553 509.857 2.01727 -8.46967 0.480238 5.23085 -8.78775 0.768016 -34.5856 56.6999 26.4379 85.2331 -67.9398 -281.816 -114.76 -9.65334 -9.64756 15.0764 13.3695 -24.0476 0.0 7.28532 0.0 24.4171 -12.9241 32.8801 0.0 0.0 0.0 0.0 0.0 0.0 110.663 -6.53536 5.24826 -10.3924 9.06298 41.8438 0.0 18.5218 0.0 -23.9171 -15.7288 -50.9798 0.0 0.0 0.0 0.0 0.0 0.0 7.87602 -4.92297 0.79643 0.0 5.78042 0.0 -16.3478 1.6287003 11.8547 0.0 -34.371902 0.0 4.10149 -5.26827 3.79234 0.0 8.18732 0.0 14.8835 4.5352 -17.0456 0.0 -38.586 0.0 
  1.1569899749755859 7.0374298095703125 9.341400146484375 -155.021 81.5871 509.76 1.99886 -8.42468 0.455878 5.20383 -8.78962 0.747651 -33.1004 57.5812 24.0523 85.004 -68.1139 -282.598 -114.7802 -9.67672 -9.59063 15.1209 13.3776 -24.0599 0.0 7.31214 0.0 24.4461 -12.9426 32.7917 0.0 0.0 0.0 0.0 0.0 0.0 110.650604 -6.54089 5.26949 -10.3721 9.09172 41.8825 0.0 18.5174 0.0 -23.8459 -15.7646 -51.0942 0.0 0.0 0.0 0.0 0.0 0.0 7.87495 -4.92296 0.753914 0.0 5.80562 0.0 -16.3217 1.6494999 11.8511 0.0 -34.369102 0.0 4.09968 -5.25838 3.75362 0.0 8.22649 0.0 14.8853 4.5287 -17.0484 0.0 -38.592697 0.0 
  1.156969985961914 7.03906005859375 9.341370239257813 -154.874 81.6162 509.64 1.97803 -8.38859 0.434911 5.19329 -8.79238 0.731037 -31.4125 58.4851 21.448 84.7853 -68.2479 -283.258 -114.7736 -9.7034 -9.59808 15.1098 13.3576 -23.9307 0.0 7.3565 0.0 24.4296 -12.8932 32.7319 0.0 0.0 0.0 0.0 0.0 0.0 110.63 -6.5256 5.257 -10.3477 9.12418 41.9294 0.0 18.5095 0.0 -23.7802 -15.743 -51.0309 0.0 0.0 0.0 0.0 0.0 0.0 7.87948 -4.90999 0.756128 0.0 5.81464 0.0 -16.3311 1.6647997 11.8199 0.0 -34.4194 0.0 4.10582 -5.2512 3.77475 0.0 8.26603 0.0 14.9028 4.5063 -17.0802 0.0 -38.6027 0.0 
  1.1571900177001953 7.040579833984375 9.34135986328125 -154.745 81.6382 509.516 1.95884 -8.37125 0.416303 5.1943 -8.76069 0.714156 -29.8686 59.2606 19.1031 84.6349 -68.37 -283.857 -114.7456 -9.7441 -9.71165 15.0242 13.3528 -23.7651 0.0 7.42064 0.0 24.4135 -12.8445 32.7323 0.0 0.0 0.0 0.0 0.0 0.0 110.6045 -6.53275 5.32003 -10.2987 9.21755 41.8699 0.0 18.5155 0.0 -23.7889 -15.704 -50.9145 0.0 0.0 0.0 0.0 0.0 0.0 7.88453 -4.89639 0.757585 0.0 5.82202 0.0 -16.3336 1.6633997 11.8077 0.0 -34.4015 0.0 4.11127 -5.24528 3.77931 0.0 8.2906 0.0 14.9146 4.5043 -17.0869 0.0 -38.6554 0.0 
  1.1574299621582032 7.042830200195312 9.341489868164063 -154.591 81.6679 509.399 1.93036 -8.34169 0.377588 5.19867 -8.75081 0.679833 -28.1512 59.9719 16.5781 84.419 -68.4923 -284.408 -114.7465 -9.75349 -9.7128 15.0031 13.3035 -23.7428 0.0 7.44134 0.0 24.3267 -12.8154 32.6352 0.0 0.0 0.0 0.0 0.0 0.0 110.6098 -6.49585 5.29761 -10.2927 9.2479 41.9052 0.0 18.562 0.0 -23.7563 -15.6713 -50.8784 0.0 0.0 0.0 0.0 0.0 0.0 7.88588 -4.90032 0.714929 0.0 5.85387 0.0 -16.3352 1.6666002 11.8085 0.0 -34.4226 0.0 4.1109 -5.24377 3.709 0.0 8.3346 0.0 14.9051 4.5021 -17.0579 0.0 -38.5994 0.0 
  1.1579299926757813 7.044569702148437 9.341500244140626 -154.507 81.6895 509.315 1.90648 -8.32374 0.356205 5.21067 -8.75962 0.663349 -26.6852 60.5515 14.4245 84.5642 -68.6276 -284.769 -114.724 -9.74642 -9.65097 14.9616 13.2247 -23.803 0.0 7.44074 0.0 24.2067 -12.7869 32.4694 0.0 0.0 0.0 0.0 0.0 0.0 110.5998 -6.42253 5.18909 -10.3117 9.21374 41.8288 0.0 18.5873 0.0 -23.6871 -15.5992 -50.8684 0.0 0.0 0.0 0.0 0.0 0.0 7.88191 -4.89559 0.689084 0.0 5.87036 0.0 -16.3183 1.6639996 11.8333 0.0 -34.408302 0.0 4.10855 -5.24896 3.7022 0.0 8.37007 0.0 14.9085 4.5030003 -17.048 0.0 -38.6103 0.0 
  1.1585199737548828 7.046400146484375 9.341719970703124 -154.402 81.7236 509.192 1.89587 -8.2958 0.349474 5.20618 -8.69859 0.655094 -25.4051 61.0446 12.6096 84.4919 -68.6794 -285.137 -114.7169 -9.78094 -9.6641 14.9086 13.2071 -23.8804 0.0 7.44344 0.0 24.105 -12.7393 32.6386 0.0 0.0 0.0 0.0 0.0 0.0 110.5895 -6.41254 5.16157 -10.3007 9.24642 41.736 0.0 18.6558 0.0 -23.5409 -15.6675 -50.7786 0.0 0.0 0.0 0.0 0.0 0.0 7.87559 -4.87351 0.696897 0.0 5.88606 0.0 -16.3243 1.6661997 11.8353 0.0 -34.400803 0.0 4.10311 -5.24366 3.7057 0.0 8.40383 0.0 14.9028 4.5119 -17.0374 0.0 -38.637 0.0 
